<?xml version="1.0" encoding="UTF-8" standalone="no"?><!DOCTYPE svg PUBLIC "-//W3C//DTD SVG 1.1//EN" "http://www.w3.org/Graphics/SVG/1.1/DTD/svg11.dtd"><svg width="100%" height="100%" viewBox="0 0 1916 754" version="1.1" xmlns="http://www.w3.org/2000/svg" xmlns:xlink="http://www.w3.org/1999/xlink" xml:space="preserve" xmlns:serif="http://www.serif.com/" style="fill-rule:evenodd;clip-rule:evenodd;stroke-linejoin:round;stroke-miterlimit:2;"><rect x="-49.819" y="-43.681" width="2039.72" height="861.558" style="fill:#231f20;"/><g id="Layer1"><path d="M957.827,387.679l73.238,24.389c0.86,0.286 1.418,1.118 1.357,2.023l-4.835,71.525c-0.039,0.568 0.168,1.125 0.567,1.53l21.737,22.103c0.718,0.731 0.765,1.887 0.108,2.673l-29.239,34.992c-0.555,0.664 -1.477,0.894 -2.279,0.567l-17.219,-7.022c-0.52,-0.212 -1.105,-0.194 -1.611,0.048c-0.506,0.242 -0.887,0.687 -1.048,1.225l-8.065,26.974c-0.19,0.637 -0.687,1.137 -1.322,1.332l-30.804,9.467c-0.381,0.117 -0.788,0.117 -1.169,-0l-30.804,-9.467c-0.636,-0.195 -1.132,-0.695 -1.322,-1.332l-8.065,-26.974c-0.161,-0.538 -0.542,-0.983 -1.048,-1.225c-0.506,-0.242 -1.091,-0.26 -1.611,-0.048l-17.219,7.022c-0.802,0.327 -1.724,0.097 -2.279,-0.567l-29.239,-34.992c-0.657,-0.786 -0.61,-1.942 0.108,-2.673l21.737,-22.103c0.399,-0.405 0.606,-0.962 0.567,-1.53l-4.835,-71.525c-0.061,-0.905 0.497,-1.737 1.357,-2.023l73.237,-24.389Zm-40.517,92.216c-10.672,0 -19.337,8.665 -19.337,19.337c0,10.673 8.665,19.337 19.337,19.337c10.672,0 19.337,-8.664 19.337,-19.337c-0,-10.672 -8.665,-19.337 -19.337,-19.337Zm81.035,0c-10.672,0 -19.337,8.665 -19.337,19.337c0,10.673 8.665,19.337 19.337,19.337c10.672,0 19.337,-8.664 19.337,-19.337c-0,-10.672 -8.665,-19.337 -19.337,-19.337Zm-41.364,40.24l-10.993,16.059c-0.444,0.649 -0.308,1.532 0.312,2.016l4.05,3.166c0.613,0.478 1.491,0.406 2.017,-0.168l4.947,-5.396c0.132,-0.144 0.318,-0.226 0.514,-0.226c0.195,0 0.381,0.082 0.513,0.226l4.948,5.396c0.525,0.574 1.403,0.646 2.016,0.168l4.05,-3.166c0.62,-0.484 0.756,-1.367 0.312,-2.016l-10.992,-16.059c-0.192,-0.28 -0.509,-0.447 -0.847,-0.447c-0.339,-0 -0.656,0.167 -0.847,0.447Zm-86.802,-51.325c0.049,0.734 -0.208,1.457 -0.71,1.994c-0.503,0.538 -1.206,0.843 -1.942,0.843l-740.389,0c-0.785,0 -1.53,-0.346 -2.035,-0.947l-45.162,-53.696c-0.665,-0.791 -0.812,-1.896 -0.376,-2.833c0.437,-0.937 1.377,-1.536 2.41,-1.536l781.923,-0c1.401,0.001 2.561,1.091 2.65,2.49c0.004,0.034 0.006,0.069 0.009,0.103l3.622,53.582Zm0.106,74.776c0.661,0.792 0.805,1.895 0.368,2.83c-0.437,0.935 -1.376,1.532 -2.408,1.532l-204.586,0c-0.784,0 -1.529,-0.347 -2.034,-0.947l-16.847,-20.03c-0.665,-0.791 -0.811,-1.896 -0.375,-2.833c0.436,-0.937 1.376,-1.536 2.41,-1.536l205.759,-0c0.113,-0 0.221,0.05 0.293,0.137l17.42,20.847Zm-28.316,-34.043c-0.5,0.508 -1.183,0.794 -1.895,0.794l-680.395,0c-0.785,0 -1.529,-0.346 -2.034,-0.947l-16.847,-20.03c-0.666,-0.791 -0.812,-1.896 -0.376,-2.833c0.436,-0.937 1.376,-1.536 2.41,-1.536l716.94,0c1.071,0 2.038,0.643 2.452,1.631c0.414,0.987 0.195,2.127 -0.556,2.891l-19.699,20.03Zm-432.323,17.428c-0.666,-0.791 -0.812,-1.896 -0.376,-2.833c0.436,-0.937 1.376,-1.536 2.41,-1.536l204.987,-0c0.784,-0 1.529,0.347 2.034,0.947l16.847,20.03c0.665,0.791 0.811,1.896 0.375,2.833c-0.436,0.937 -1.376,1.536 -2.409,1.536l-204.987,0c-0.785,0 -1.529,-0.346 -2.034,-0.947l-16.847,-20.03Zm635.83,-58.161l3.622,-53.582c0.003,-0.034 0.005,-0.069 0.009,-0.103c0.089,-1.399 1.249,-2.489 2.65,-2.49l781.923,-0c1.033,-0 1.973,0.599 2.41,1.536c0.436,0.937 0.289,2.042 -0.376,2.833l-45.162,53.696c-0.505,0.601 -1.25,0.947 -2.035,0.947l-740.389,0c-0.736,0 -1.439,-0.305 -1.942,-0.843c-0.502,-0.537 -0.759,-1.26 -0.71,-1.994Zm-0.106,74.776l17.42,-20.847c0.072,-0.087 0.18,-0.137 0.293,-0.137l205.759,-0c1.034,-0 1.974,0.599 2.41,1.536c0.436,0.937 0.29,2.042 -0.375,2.833l-16.847,20.03c-0.505,0.6 -1.25,0.947 -2.034,0.947l-204.586,0c-1.032,0 -1.971,-0.597 -2.408,-1.532c-0.437,-0.935 -0.293,-2.038 0.368,-2.83Zm28.316,-34.043l-19.699,-20.03c-0.751,-0.764 -0.97,-1.904 -0.556,-2.891c0.414,-0.988 1.38,-1.631 2.451,-1.631l716.941,0c1.034,0 1.974,0.599 2.41,1.536c0.436,0.937 0.29,2.042 -0.376,2.833l-16.847,20.03c-0.505,0.601 -1.249,0.947 -2.034,0.947l-680.395,0c-0.712,0 -1.395,-0.286 -1.895,-0.794Zm432.323,17.428l-16.847,20.03c-0.505,0.601 -1.249,0.947 -2.034,0.947l-204.987,0c-1.033,0 -1.973,-0.599 -2.409,-1.536c-0.436,-0.937 -0.29,-2.042 0.375,-2.833l16.847,-20.03c0.505,-0.6 1.25,-0.947 2.034,-0.947l204.987,-0c1.034,-0 1.974,0.599 2.41,1.536c0.436,0.937 0.29,2.042 -0.376,2.833Z" style="fill:#ffe900;"/><path d="M710.887,178.863l-0,-71.977l-118.606,-0c-1.254,-0 -2.455,-0.498 -3.341,-1.384c-0.886,-0.886 -1.384,-2.088 -1.384,-3.341c-0,-13.231 -0,-50.546 -0,-63.778c-0,-1.253 0.498,-2.455 1.384,-3.341c0.886,-0.886 2.087,-1.384 3.341,-1.384c59.932,0 670.873,0 730.805,0c1.253,0 2.455,0.498 3.341,1.384c0.886,0.886 1.384,2.088 1.384,3.341c0,13.232 0,50.547 0,63.778c0,1.253 -0.498,2.455 -1.384,3.341c-0.886,0.886 -2.088,1.384 -3.341,1.384c-22.603,-0 -118.606,-0 -118.606,-0l-0,71.977l-199.051,-0l-0,-71.977l-95.491,-0l-0,71.977l-199.051,-0Zm493.593,393.838l-0,72.16l118.606,0l3.341,1.384l1.384,3.341l0,63.778l-1.384,3.341l-3.341,1.384l-730.805,-0l-3.341,-1.384l-1.384,-3.341l-0,-63.778l1.384,-3.341l3.341,-1.384l118.606,0l-0,-72.16l184.614,0l14.437,18.499l-0,53.661l95.491,0l-0,-53.661l14.437,-18.499l184.614,0Z" style="fill:#ffe900;"/><path d="M138.392,308.35l0,49.141c0,1.507 -0.599,2.953 -1.665,4.019c-1.065,1.065 -2.511,1.664 -4.018,1.664l-47.709,0c-3.138,0 -5.683,-2.544 -5.683,-5.683l0,-147.113c0,-3.139 2.545,-5.683 5.683,-5.683l47.709,-0c1.507,-0 2.953,0.599 4.018,1.664c1.066,1.066 1.665,2.512 1.665,4.019l0,44.558l65.029,-0l-0,-44.558c-0,-1.507 0.599,-2.953 1.665,-4.019c1.065,-1.065 2.511,-1.664 4.018,-1.664l47.709,-0c3.138,-0 5.683,2.544 5.683,5.683l-0,147.113c-0,3.139 -2.545,5.683 -5.683,5.683l-47.709,0c-1.507,0 -2.953,-0.599 -4.018,-1.664c-1.066,-1.066 -1.665,-2.512 -1.665,-4.019l-0,-49.141l-65.029,-0Zm1385.96,8.814l0,40.327c0,1.507 -0.598,2.953 -1.664,4.019c-1.066,1.065 -2.512,1.664 -4.019,1.664l-47.708,0c-3.139,0 -5.684,-2.544 -5.684,-5.683l0,-147.113c0,-3.139 2.545,-5.683 5.684,-5.683l139.357,-0c1.709,-0 3.327,0.768 4.406,2.093l24.478,30.035c0.826,1.014 1.277,2.282 1.277,3.59l0,33.74c0,1.425 -0.535,2.797 -1.498,3.846l-16.909,18.399l17.046,19.958c0.878,1.029 1.361,2.338 1.361,3.691l0,37.444c0,1.507 -0.599,2.953 -1.664,4.019c-1.066,1.065 -2.512,1.664 -4.019,1.664l-47.708,0c-1.508,0 -2.953,-0.599 -4.019,-1.664c-1.066,-1.066 -1.665,-2.512 -1.665,-4.019l0,-40.327l-57.052,-0Zm0,-70.293l0,28.117l57.052,0l0,-28.117l-57.052,-0Zm254.861,54.228l-90.001,0c-1.602,0 -3.13,-0.676 -4.207,-1.862l-25.441,-28.014c-0.95,-1.045 -1.476,-2.408 -1.476,-3.82l-0,-26.786c-0,-1.343 0.476,-2.643 1.343,-3.669l25.562,-30.239c1.08,-1.277 2.668,-2.014 4.341,-2.014l101.748,-0c1.647,-0 3.213,0.714 4.292,1.958l25.991,29.943c0.898,1.033 1.392,2.356 1.392,3.725l-0,0.867c-0,3.138 -2.545,5.683 -5.683,5.683l-101.491,-0l0,12.052l88.854,0c1.653,0 3.225,0.72 4.304,1.972l26.588,30.835c0.89,1.032 1.38,2.349 1.38,3.711l-0,29.922c-0,1.326 -0.464,2.609 -1.31,3.629l-26.654,32.128c-1.079,1.301 -2.683,2.054 -4.374,2.054l-114.163,0c-1.631,0 -3.183,-0.7 -4.262,-1.923l-26.437,-29.969c-0.916,-1.039 -1.421,-2.375 -1.421,-3.76l-0,-4.609c-0,-3.139 2.544,-5.683 5.683,-5.683l115.442,-0l0,-16.131Zm-1334.13,56.392c0,3.139 -2.544,5.683 -5.683,5.683l-146.992,0c-3.138,0 -5.683,-2.544 -5.683,-5.683l0,-147.113c0,-3.139 2.545,-5.683 5.683,-5.683l146.992,-0c3.139,-0 5.683,2.544 5.683,5.683l0,31.894c0,3.138 -2.544,5.683 -5.683,5.683l-93.6,-0l0,11.212l86.029,-0c3.138,-0 5.683,2.544 5.683,5.683l-0,31.893c-0,3.139 -2.545,5.684 -5.683,5.684l-86.029,-0l0,14.526l93.6,-0c1.507,-0 2.953,0.598 4.019,1.664c1.065,1.066 1.664,2.511 1.664,4.019l0,34.855Zm999.675,-0c0,3.139 -2.544,5.683 -5.683,5.683l-146.992,0c-3.138,0 -5.683,-2.544 -5.683,-5.683l0,-147.113c0,-3.139 2.545,-5.683 5.683,-5.683l146.992,-0c3.139,-0 5.683,2.544 5.683,5.683l0,31.894c0,3.138 -2.544,5.683 -5.683,5.683l-93.6,-0l0,11.212l86.028,-0c3.139,-0 5.684,2.544 5.684,5.683l-0,31.893c-0,3.139 -2.545,5.684 -5.684,5.684l-86.028,-0l0,14.526l93.6,-0c1.507,-0 2.953,0.598 4.019,1.664c1.065,1.066 1.664,2.511 1.664,4.019l0,34.855Zm-831.725,-0c0,1.507 -0.599,2.953 -1.664,4.019c-1.066,1.065 -2.512,1.664 -4.019,1.664l-132.37,0c-3.139,0 -5.683,-2.544 -5.683,-5.683l-0,-147.113c-0,-3.139 2.544,-5.683 5.683,-5.683l47.709,-0c1.507,-0 2.952,0.599 4.018,1.664c1.066,1.066 1.665,2.512 1.665,4.019l-0,106.575l78.978,-0c3.139,-0 5.683,2.544 5.683,5.683l0,34.855Zm161.686,-0c-0,1.507 -0.599,2.953 -1.665,4.019c-1.066,1.065 -2.511,1.664 -4.019,1.664l-132.369,0c-3.139,0 -5.684,-2.544 -5.684,-5.683l0,-147.113c0,-3.139 2.545,-5.683 5.684,-5.683l47.708,-0c1.507,-0 2.953,0.599 4.019,1.664c1.065,1.066 1.664,2.512 1.664,4.019l0,106.575l78.978,-0c3.139,-0 5.684,2.544 5.684,5.683l-0,34.855Zm209.787,-30.391c0,1.292 -0.44,2.545 -1.248,3.554l-24.354,30.391c-1.079,1.346 -2.71,2.129 -4.435,2.129l-156.118,0c-3.139,0 -5.683,-2.544 -5.683,-5.683l-0,-147.113c-0,-3.139 2.544,-5.683 5.683,-5.683l156.178,-0c1.69,-0 3.293,0.753 4.373,2.054l24.295,29.273c0.846,1.02 1.309,2.304 1.309,3.629l0,87.449Zm-132.763,-76.183l-0,66.036l73.688,-0l0,-66.036l-73.688,-0Zm207.441,-46.222c3.139,-0 5.683,2.544 5.683,5.683l0,147.113c0,3.139 -2.544,5.683 -5.683,5.683l-47.709,0c-3.138,0 -5.683,-2.544 -5.683,-5.683l0,-147.113c0,-3.139 2.545,-5.683 5.683,-5.683l47.709,-0Zm147.843,155.152c-0.924,2.027 -2.945,3.327 -5.172,3.327l-53.993,0c-2.227,0 -4.248,-1.3 -5.172,-3.327l-67.027,-147.113c-0.801,-1.759 -0.654,-3.805 0.392,-5.431c1.046,-1.625 2.847,-2.608 4.78,-2.608l49.771,-0c2.314,-0 4.396,1.402 5.266,3.546l38.986,96.077l38.987,-96.077c0.87,-2.144 2.952,-3.546 5.266,-3.546l49.771,-0c1.933,-0 3.734,0.983 4.78,2.608c1.046,1.626 1.193,3.672 0.392,5.431l-67.027,147.113Z" style="fill:#ffe900;"/></g></svg>